<svg width="70" height="70" viewBox="0 0 70 70" fill="none" xmlns="http://www.w3.org/2000/svg">
<path d="M69.9567 65.9741L67.6225 49.9515C67.5082 49.1903 66.9287 48.6378 66.2447 48.6378H64.501L64.2527 46.3268C63.9708 44.3569 62.4902 42.9271 60.733 42.9271C58.9753 42.9271 57.4948 44.3569 57.2085 46.3595L56.9642 48.6378H55.2141C54.5351 48.6378 53.959 49.1901 53.8433 49.9556L53.7914 50.3123C50.2359 45.7875 45.0712 42.9272 39.3229 42.9272H35.876V40.4152C39.1669 38.1948 41.5363 34.3443 42.053 29.7806L42.1997 28.4874C43.6348 28.1457 44.7159 26.6977 44.7159 24.9683C44.7159 23.6808 44.1095 22.5621 43.2103 21.9285C43.3935 21.5764 43.5011 21.166 43.5011 20.7323V13.7187C43.5011 6.15422 38.0808 0 31.4183 0H27.3158C20.6537 0 15.2333 6.15422 15.2333 13.7187V20.8127C15.2333 21.2139 15.3379 21.5952 15.5128 21.9323C14.6167 22.5668 14.0131 23.6835 14.0131 24.9683C14.0131 26.6977 15.094 28.1457 16.5293 28.4874L16.676 29.7806C17.1926 34.3443 19.5622 38.1945 22.8529 40.415V42.9272H19.4058C8.70542 42.9272 0 52.8113 0 64.9608V69.1722C0 69.6293 0.326484 70 0.72912 70C8.35173 70 60.6475 70 66.9578 70C68.8452 69.9998 70.2698 68.0655 69.9567 65.9741ZM58.6517 46.5927C58.8188 45.4281 59.6939 44.5829 60.7327 44.5829C61.7716 44.5829 62.6464 45.4281 62.8092 46.5601L63.0322 48.6378H58.4326L58.6517 46.5927ZM16.6912 13.7187C16.6912 7.06743 21.457 1.65568 27.3153 1.65568H31.4178C37.276 1.65568 42.0423 7.06728 42.0423 13.7187V20.7323C42.0423 21.0432 41.8647 21.3204 41.6379 21.3633C41.3196 21.4205 41.058 21.1458 41.058 20.8127L41.0575 19.4015C40.991 16.8515 39.7077 14.547 37.739 13.4058C37.0864 12.9823 36.2643 13.0211 35.6465 13.5124C32.6156 15.9172 26.7594 16.4364 23.0745 13.5129C22.4504 13.0172 21.6514 12.9759 21.018 13.3871C19.0188 14.5473 17.7358 16.8546 17.6688 19.4338V20.7349C17.6688 21.0454 17.4908 21.3215 17.2629 21.3631C16.9508 21.4232 16.6912 21.1477 16.6912 20.8125V13.7187ZM18.1218 29.5695L17.9021 27.6299C17.8553 27.2168 17.5456 26.9074 17.179 26.9074C16.2372 26.9074 15.4711 26.0375 15.4711 24.9683C15.4711 23.8809 16.2213 23.0292 17.179 23.0292C18.2843 23.0292 19.1272 21.9618 19.1272 20.7352L19.1268 19.4586C19.1778 17.5082 20.1568 15.7469 21.712 14.8435C21.8822 14.7331 22.0791 14.7432 22.2386 14.8702C26.1184 17.9485 32.5505 17.99 36.4825 14.8697C36.6413 14.7432 36.8452 14.7331 37.045 14.862C38.57 15.7465 39.549 17.5049 39.5996 19.4263V20.8128C39.5996 22.9567 41.6416 23.0773 41.5492 23.0292C42.5069 23.0292 43.2571 23.8809 43.2571 24.9683C43.2571 26.0375 42.4909 26.9074 41.5492 26.9074C41.1824 26.9074 40.8727 27.2168 40.8261 27.6299L40.6064 29.5695C39.8815 35.9707 35.0486 40.7977 29.3643 40.7977C23.6799 40.7977 18.8468 35.9705 18.1218 29.5695ZM29.3643 42.4535C31.1517 42.4535 32.8587 42.0178 34.4175 41.2514V44.5725C34.4175 47.7366 32.1506 50.3103 29.3643 50.3103C26.5775 50.3103 24.3108 47.7364 24.3108 44.5725V41.2512C25.8696 42.0176 27.5768 42.4535 29.3643 42.4535ZM1.45824 64.9608C1.45824 53.7245 9.50932 44.5829 19.4057 44.5829H22.8531C22.8581 48.6547 25.7769 51.9659 29.3646 51.9659C32.9522 51.9659 35.8704 48.6547 35.8756 44.5829H39.323C45.0704 44.5829 50.1927 47.6687 53.4795 52.4551L51.5112 65.9701C51.3868 66.8009 51.548 67.6363 51.9316 68.3443H49.1339V59.6295C49.1339 59.1723 48.8074 58.8016 48.4048 58.8016C48.0022 58.8016 47.6757 59.1723 47.6757 59.6295V68.3443H11.053V59.6298C11.053 59.1726 10.7265 58.8019 10.3239 58.8019C9.92126 58.8019 9.59477 59.1726 9.59477 59.6298V68.3443H1.45824V64.9608ZM66.9578 68.3442C65.1632 68.3442 57.2625 68.3442 54.5086 68.3442C53.5361 68.3442 52.7836 67.3482 52.9491 66.2442L55.2722 50.2937H56.7862L56.5675 52.3331C56.2084 52.3846 55.9265 52.7191 55.9265 53.1407C55.9265 53.5979 56.253 53.9685 56.6556 53.9685H57.775C58.1776 53.9685 58.5041 53.5979 58.5041 53.1407C58.5041 52.7873 58.3069 52.4905 58.0321 52.3719L58.2548 50.2937H63.2095L63.4326 52.3719C63.158 52.4906 62.9608 52.7873 62.9608 53.1407C62.9608 53.5979 63.2873 53.9685 63.6899 53.9685H64.8093C65.2119 53.9685 65.5384 53.5979 65.5384 53.1407C65.5384 52.719 65.2565 52.3846 64.8974 52.3331L64.6783 50.2937H66.1935L68.5177 66.2478C68.6818 67.3409 67.9352 68.3442 66.9578 68.3442ZM60.7331 57.6234C59.0161 57.6234 57.6188 59.2096 57.6188 61.1594C57.6188 63.1058 59.0158 64.6891 60.7331 64.6891C62.4505 64.6891 63.8474 63.1058 63.8474 61.1594C63.8474 59.2096 62.4505 57.6234 60.7331 57.6234ZM60.7331 63.0333C59.8199 63.0333 59.0772 62.1924 59.0772 61.1594C59.0772 60.1225 59.8199 59.2793 60.7331 59.2793C61.6464 59.2793 62.3891 60.1225 62.3891 61.1594C62.3892 62.1924 61.6464 63.0333 60.7331 63.0333ZM33.5215 34.6402C31.1824 37.1717 27.5189 37.172 25.1792 34.6402C24.8876 34.3249 24.8765 33.8009 25.1546 33.4699C25.4327 33.1393 25.8948 33.127 26.1853 33.442C27.9598 35.362 30.7408 35.3628 32.5152 33.442C32.8058 33.127 33.2683 33.1388 33.546 33.4699C33.824 33.801 33.8131 34.3249 33.5215 34.6402ZM32.6602 23.8632C33.3283 22.0374 35.607 22.0536 36.2708 23.8625C36.4257 24.2845 36.25 24.7692 35.8784 24.945C35.506 25.1229 35.0794 24.9211 34.9249 24.4995C34.7541 24.0365 34.1757 24.0372 34.0067 24.4987C33.8528 24.9197 33.4267 25.1218 33.0536 24.9455C32.6815 24.7699 32.5057 24.2853 32.6602 23.8632ZM24.7223 24.4995C24.5526 24.0393 23.9744 24.0329 23.8038 24.4991C23.649 24.9203 23.2229 25.1214 22.8503 24.9453C22.4786 24.7695 22.3028 24.2848 22.4573 23.8628C23.1257 22.0387 25.4042 22.0528 26.0681 23.8623C26.223 24.2844 26.0475 24.769 25.6758 24.9449C25.3037 25.1228 24.8769 24.9211 24.7223 24.4995Z" fill="#EA7C69"/>
</svg>
