<svg width="200" height="200" viewBox="0 0 200 200" fill="none" xmlns="http://www.w3.org/2000/svg">
<path d="M136.6 138.965H63.4004C62.0957 138.965 61.0352 137.904 61.0352 136.6V63.4004C61.0352 62.0957 62.0957 61.0352 63.4004 61.0352H136.6C137.904 61.0352 138.965 62.0957 138.965 63.4004V136.6C138.965 137.904 137.904 138.965 136.6 138.965ZM63.9648 136.035H136.035V63.9648H63.9648V136.035ZM110.564 54.5898H89.4355C87.7383 54.5898 86.125 53.8535 85.0137 52.5723C83.9004 51.2891 83.4004 49.5898 83.6406 47.9082L85.1309 37.4824C85.7578 33.0938 89.5742 29.7852 94.0059 29.7852H105.994C110.428 29.7852 114.242 33.0938 114.869 37.4824L116.359 47.9082C116.6 49.5898 116.1 51.2891 114.986 52.5723C113.875 53.8535 112.262 54.5898 110.564 54.5898ZM94.0059 32.7148C91.0215 32.7148 88.4531 34.9434 88.0312 37.8965L86.541 48.3223C86.4219 49.1621 86.6719 50.0117 87.2266 50.6523C87.7832 51.293 88.5879 51.6602 89.4355 51.6602H110.564C111.412 51.6602 112.219 51.293 112.773 50.6523C113.33 50.0117 113.58 49.1621 113.459 48.3223L111.969 37.8965C111.547 34.9414 108.979 32.7148 105.994 32.7148H94.0059Z" fill="#EA7C69"/>
<path d="M84.375 28.125C84.375 29.8516 85.7734 31.25 87.5 31.25H112.5C114.227 31.25 115.625 29.8516 115.625 28.125C115.625 26.3984 114.227 25 112.5 25H87.5C85.7734 25 84.375 26.3984 84.375 28.125Z" fill="#EA7C69"/>
<path d="M112.5 32.2266H87.5C85.2383 32.2266 83.3984 30.3867 83.3984 28.125C83.3984 25.8633 85.2383 24.0234 87.5 24.0234H112.5C114.762 24.0234 116.602 25.8633 116.602 28.125C116.602 30.3867 114.762 32.2266 112.5 32.2266ZM87.5 25.9766C86.3145 25.9766 85.3516 26.9395 85.3516 28.125C85.3516 29.3105 86.3145 30.2734 87.5 30.2734H112.5C113.686 30.2734 114.648 29.3105 114.648 28.125C114.648 26.9395 113.686 25.9766 112.5 25.9766H87.5ZM105.994 170.215H94.0059C89.5723 170.215 85.7578 166.906 85.1309 162.518L83.6406 152.092C83.4004 150.41 83.9004 148.711 85.0137 147.428C86.127 146.145 87.7383 145.41 89.4355 145.41H110.564C112.262 145.41 113.875 146.146 114.986 147.428C116.1 148.711 116.6 150.41 116.359 152.092L114.869 162.518C114.244 166.906 110.428 170.215 105.994 170.215ZM89.4355 148.34C88.5879 148.34 87.7813 148.707 87.2266 149.348C86.6699 149.988 86.4199 150.838 86.541 151.678L88.0312 162.104C88.4531 165.059 91.0215 167.285 94.0059 167.285H105.994C108.979 167.285 111.547 165.057 111.969 162.104L113.459 151.678C113.578 150.838 113.328 149.988 112.773 149.348C112.217 148.707 111.412 148.34 110.564 148.34H89.4355Z" fill="#EA7C69"/>
<path d="M84.375 171.875C84.375 170.148 85.7734 168.75 87.5 168.75H112.5C114.227 168.75 115.625 170.148 115.625 171.875C115.625 173.602 114.227 175 112.5 175H87.5C85.7734 175 84.375 173.602 84.375 171.875Z" fill="#EA7C69"/>
<path d="M112.5 175.977H87.5C85.2383 175.977 83.3984 174.137 83.3984 171.875C83.3984 169.613 85.2383 167.773 87.5 167.773H112.5C114.762 167.773 116.602 169.613 116.602 171.875C116.602 174.137 114.762 175.977 112.5 175.977ZM87.5 169.727C86.3145 169.727 85.3516 170.689 85.3516 171.875C85.3516 173.061 86.3145 174.023 87.5 174.023H112.5C113.686 174.023 114.648 173.061 114.648 171.875C114.648 170.689 113.686 169.727 112.5 169.727H87.5ZM151.264 116.418C149.863 116.418 148.5 115.916 147.43 114.986C146.146 113.873 145.412 112.262 145.412 110.564V89.4355C145.412 87.7383 146.148 86.125 147.43 85.0137C148.711 83.9023 150.412 83.4004 152.094 83.6406L162.52 85.1309C166.908 85.7578 170.217 89.5742 170.217 94.0059V105.994C170.217 110.428 166.908 114.242 162.52 114.869L152.094 116.359C151.816 116.398 151.539 116.418 151.264 116.418ZM151.264 86.5117C150.564 86.5117 149.883 86.7637 149.348 87.2266C148.707 87.7832 148.34 88.5879 148.34 89.4355V110.564C148.34 111.412 148.707 112.219 149.348 112.773C149.988 113.328 150.838 113.58 151.678 113.459L162.104 111.969C165.059 111.547 167.285 108.979 167.285 105.994V94.0059C167.285 91.0215 165.057 88.4531 162.104 88.0312L151.678 86.541C151.539 86.5215 151.4 86.5117 151.264 86.5117Z" fill="#EA7C69"/>
<path d="M171.875 115.625C170.148 115.625 168.75 114.227 168.75 112.5V87.5C168.75 85.7734 170.148 84.375 171.875 84.375C173.602 84.375 175 85.7734 175 87.5V112.5C175 114.227 173.602 115.625 171.875 115.625Z" fill="#EA7C69"/>
<path d="M171.875 116.602C169.613 116.602 167.773 114.762 167.773 112.5V87.5C167.773 85.2383 169.613 83.3984 171.875 83.3984C174.137 83.3984 175.977 85.2383 175.977 87.5V112.5C175.977 114.762 174.137 116.602 171.875 116.602ZM171.875 85.3516C170.689 85.3516 169.727 86.3145 169.727 87.5V112.5C169.727 113.686 170.689 114.648 171.875 114.648C173.061 114.648 174.023 113.686 174.023 112.5V87.5C174.023 86.3145 173.061 85.3516 171.875 85.3516ZM48.7363 116.418C48.4609 116.418 48.1836 116.398 47.9082 116.359L37.4824 114.869C33.0938 114.242 29.7852 110.426 29.7852 105.994V94.0059C29.7852 89.5723 33.0938 85.7578 37.4824 85.1309L47.9082 83.6406C49.5879 83.4004 51.2891 83.9004 52.5723 85.0137C53.8555 86.127 54.5898 87.7383 54.5898 89.4355V110.564C54.5898 112.262 53.8535 113.875 52.5723 114.986C51.5 115.916 50.1367 116.418 48.7363 116.418ZM48.3223 113.459C49.1621 113.58 50.0117 113.328 50.6523 112.773C51.293 112.217 51.6602 111.412 51.6602 110.564V89.4355C51.6602 88.5879 51.293 87.7813 50.6523 87.2266C50.0117 86.6699 49.1621 86.4199 48.3223 86.541L37.8965 88.0312C34.9414 88.4531 32.7148 91.0215 32.7148 94.0059V105.994C32.7148 108.979 34.9434 111.547 37.8965 111.969L48.3223 113.459Z" fill="#EA7C69"/>
<path d="M28.125 115.625C29.8516 115.625 31.25 114.227 31.25 112.5V87.5C31.25 85.7734 29.8516 84.375 28.125 84.375C26.3984 84.375 25 85.7734 25 87.5V112.5C25 114.227 26.3984 115.625 28.125 115.625Z" fill="#EA7C69"/>
<path d="M28.125 116.602C25.8633 116.602 24.0234 114.762 24.0234 112.5V87.5C24.0234 85.2383 25.8633 83.3984 28.125 83.3984C30.3867 83.3984 32.2266 85.2383 32.2266 87.5V112.5C32.2266 114.762 30.3867 116.602 28.125 116.602ZM28.125 85.3516C26.9395 85.3516 25.9766 86.3145 25.9766 87.5V112.5C25.9766 113.686 26.9395 114.648 28.125 114.648C29.3105 114.648 30.2734 113.686 30.2734 112.5V87.5C30.2734 86.3145 29.3105 85.3516 28.125 85.3516Z" fill="#EA7C69"/>
<path d="M100 113.965C92.2988 113.965 86.0352 107.699 86.0352 100C86.0352 92.3008 92.2988 86.0352 100 86.0352C107.701 86.0352 113.965 92.3008 113.965 100C113.965 107.699 107.701 113.965 100 113.965ZM100 88.9648C93.916 88.9648 88.9648 93.916 88.9648 100C88.9648 106.084 93.916 111.035 100 111.035C106.084 111.035 111.035 106.084 111.035 100C111.035 93.916 106.084 88.9648 100 88.9648Z" fill="#EA7C69"/>
<path d="M100 106.25C103.452 106.25 106.25 103.452 106.25 100C106.25 96.5482 103.452 93.75 100 93.75C96.5482 93.75 93.75 96.5482 93.75 100C93.75 103.452 96.5482 106.25 100 106.25Z" fill="#EA7C69"/>
</svg>
