<svg width="70" height="70" viewBox="0 0 70 70" fill="none" xmlns="http://www.w3.org/2000/svg">
<path d="M43.3404 8.23529H37.3045C35.9445 6.56957 33.7821 5.4902 31.3511 5.4902H31.3088C30.9369 2.40635 28.0928 0 24.6489 0C21.2051 0 18.361 2.40635 17.9891 5.4902H17.9468C15.5157 5.4902 13.3533 6.56957 11.9934 8.23529H5.95745C2.67251 8.23529 0 10.6982 0 13.7255V64.5098C0 67.5371 2.67251 70 5.95745 70H43.3404C46.6254 70 49.2979 67.5371 49.2979 64.5098V13.7255C49.2979 10.6982 46.6254 8.23529 43.3404 8.23529ZM24.6489 2.7451C26.447 2.7451 27.9516 3.92604 28.2976 5.4902H21.0003C21.3463 3.92604 22.8508 2.7451 24.6489 2.7451ZM17.9468 8.23529C19.6398 8.23529 29.666 8.23529 31.3511 8.23529C33.2927 8.23529 34.9492 9.38261 35.5639 10.9804H13.734C14.3487 9.38261 16.0051 8.23529 17.9468 8.23529ZM46.3191 64.5098C46.3191 66.0235 44.9829 67.2549 43.3404 67.2549H5.95745C4.31498 67.2549 2.97872 66.0235 2.97872 64.5098V13.7255C2.97872 12.2118 4.31498 10.9804 5.95745 10.9804H10.6498C10.5517 11.424 10.5 11.883 10.5 12.3529C10.5 13.1109 11.1669 13.7255 11.9894 13.7255H37.3085C38.1309 13.7255 38.7979 13.1109 38.7979 12.3529C38.7979 11.883 38.7462 11.424 38.648 10.9804H43.3404C44.9829 10.9804 46.3191 12.2118 46.3191 13.7255V64.5098Z" fill="#EA7C69"/>
<path d="M13.4043 30.196H7.44682C6.62439 30.196 5.95746 30.8107 5.95746 31.5686V37.0588C5.95746 37.8167 6.62439 38.4313 7.44682 38.4313H13.4043C14.2267 38.4313 14.8936 37.8167 14.8936 37.0588V31.5686C14.8936 30.8107 14.2267 30.196 13.4043 30.196ZM11.9149 35.6862H8.93618V32.9411H11.9149V35.6862ZM41.8511 30.196H19.3617C18.5393 30.196 17.8724 30.8107 17.8724 31.5686C17.8724 32.3265 18.5393 32.9411 19.3617 32.9411H41.8511C42.6735 32.9411 43.3404 32.3265 43.3404 31.5686C43.3404 30.8107 42.6735 30.196 41.8511 30.196ZM41.8511 35.6862H19.3617C18.5393 35.6862 17.8724 36.3009 17.8724 37.0588C17.8724 37.8167 18.5393 38.4313 19.3617 38.4313H41.8511C42.6735 38.4313 43.3404 37.8167 43.3404 37.0588C43.3404 36.3009 42.6735 35.6862 41.8511 35.6862ZM41.8511 42.549H19.3617C18.5393 42.549 17.8724 43.1636 17.8724 43.9215C17.8724 44.6795 18.5393 45.2941 19.3617 45.2941H41.8511C42.6735 45.2941 43.3404 44.6795 43.3404 43.9215C43.3404 43.1636 42.6735 42.549 41.8511 42.549ZM41.8511 48.0392H19.3617C18.5393 48.0392 17.8724 48.6538 17.8724 49.4117C17.8724 50.1697 18.5393 50.7843 19.3617 50.7843H41.8511C42.6735 50.7843 43.3404 50.1697 43.3404 49.4117C43.3404 48.6538 42.6735 48.0392 41.8511 48.0392ZM13.4043 54.9019H7.44682C6.62439 54.9019 5.95746 55.5166 5.95746 56.2745V61.7647C5.95746 62.5226 6.62439 63.1372 7.44682 63.1372H13.4043C14.2267 63.1372 14.8936 62.5226 14.8936 61.7647V56.2745C14.8936 55.5166 14.2267 54.9019 13.4043 54.9019ZM11.9149 60.3921H8.93618V57.647H11.9149V60.3921ZM41.8511 54.9019H19.3617C18.5393 54.9019 17.8724 55.5166 17.8724 56.2745C17.8724 57.0324 18.5393 57.647 19.3617 57.647H41.8511C42.6735 57.647 43.3404 57.0324 43.3404 56.2745C43.3404 55.5166 42.6735 54.9019 41.8511 54.9019ZM41.8511 60.3921H19.3617C18.5393 60.3921 17.8724 61.0068 17.8724 61.7647C17.8724 62.5226 18.5393 63.1372 19.3617 63.1372H41.8511C42.6735 63.1372 43.3404 62.5226 43.3404 61.7647C43.3404 61.0068 42.6735 60.3921 41.8511 60.3921Z" fill="#EA7C69"/>
<path d="M41.8511 17.8432H7.44682C6.62439 17.8432 5.95746 18.4578 5.95746 19.2157V24.7059C5.95746 25.4639 6.62439 26.0785 7.44682 26.0785H41.8511C42.6735 26.0785 43.3404 25.4639 43.3404 24.7059V19.2157C43.3404 18.4578 42.6735 17.8432 41.8511 17.8432ZM40.3617 23.3334H8.93618V20.5883H40.3617V23.3334ZM13.4043 42.5491H7.44682C6.62439 42.5491 5.95746 43.1637 5.95746 43.9216V49.4118C5.95746 50.1697 6.62439 50.7844 7.44682 50.7844H13.4043C14.2267 50.7844 14.8936 50.1697 14.8936 49.4118V43.9216C14.8936 43.1637 14.2267 42.5491 13.4043 42.5491ZM11.9149 48.0393H8.93618V45.2942H11.9149V48.0393ZM68.5107 17.8432H64.0426C64.0426 16.6266 63.4666 15.5318 62.5532 14.7773V12.353C62.5532 10.0825 60.5488 8.23535 58.0851 8.23535C55.6214 8.23535 53.617 10.0825 53.617 12.353V14.7773C52.7036 15.5318 52.1277 16.6264 52.1277 17.8432C52.129 60.814 52.1201 59.0511 52.143 59.2057C52.1601 59.3225 52.1972 59.4511 52.2482 59.5603L56.7162 69.1682C56.951 69.6728 57.4894 70.0001 58.0851 70.0001C58.6809 70.0001 59.2193 69.6728 59.454 69.1682L63.9221 59.5603C63.9992 59.3948 64.0426 59.1915 64.0426 59.0197V20.5883H67.0213V38.4314C67.0213 39.1894 67.6882 39.804 68.5107 39.804C69.3331 39.804 70 39.1894 70 38.4314V19.2157C70 18.4578 69.3331 17.8432 68.5107 17.8432ZM55.1064 34.3138H61.0638V57.6471H55.1064V34.3138ZM55.1064 17.8432C55.1064 17.0864 55.7745 16.4706 56.5958 16.4706H59.5745C60.3957 16.4706 61.0638 17.0864 61.0638 17.8432V31.5687H55.1064V17.8432ZM56.5958 12.353C56.5958 11.5962 57.2639 10.9804 58.0851 10.9804C58.9064 10.9804 59.5745 11.5962 59.5745 12.353V13.7255H56.5958V12.353ZM58.0851 65.1432L55.8757 60.3922H60.2946L58.0851 65.1432Z" fill="#EA7C69"/>
</svg>
