<svg width="70" height="70" viewBox="0 0 70 70" fill="none" xmlns="http://www.w3.org/2000/svg">
<path fill-rule="evenodd" clip-rule="evenodd" d="M47.2943 22.2589C47.2943 21.4235 47.9413 20.7461 48.7393 20.7461C49.5373 20.7461 50.1843 21.4235 50.1843 22.2589C50.1843 22.8795 50.4245 23.4412 50.8127 23.8477C51.2001 24.2533 51.7351 24.5045 52.326 24.5056H52.33H52.3344C52.9214 24.5045 53.4497 24.2556 53.8337 23.8537C54.2292 23.4396 54.4752 22.871 54.4819 22.2472C54.4977 20.8053 53.2744 20.4253 52.0274 20.0378C49.7263 19.323 47.3806 18.5942 47.2999 14.7696C47.2955 14.5649 47.2934 14.7835 47.2934 14.6595C47.2934 13.2364 47.8556 11.9509 48.7573 11.0137C49.3419 10.4062 50.0718 9.94643 50.885 9.69349V8.25472C50.885 7.41926 51.532 6.74188 52.33 6.74188C53.128 6.74188 53.775 7.41926 53.775 8.25472V9.68805C54.5846 9.94163 55.3088 10.4026 55.891 11.0121C56.8024 11.9663 57.3662 13.2844 57.3662 14.74C57.3662 15.5754 56.7192 16.2528 55.9212 16.2528C55.1231 16.2528 54.4761 15.5754 54.4761 14.74C54.4761 14.1194 54.2359 13.5577 53.8478 13.1511C53.4599 12.7451 52.9241 12.4937 52.332 12.4933H52.3298H52.3268C52.2764 12.4933 52.262 12.4926 52.264 12.4917C52.2536 12.4912 52.2433 12.4906 52.233 12.4899C51.6744 12.5147 51.1639 12.7635 50.7893 13.1527C50.4161 13.5407 50.1834 14.072 50.1834 14.6593C50.1834 14.8371 50.1753 14.5598 50.1787 14.7104C50.2127 16.3259 51.5392 16.7379 52.8402 17.142C55.1427 17.8572 57.4013 18.5589 57.3607 22.2706C57.3446 23.7289 56.782 25.0451 55.877 25.9927C55.2978 26.5991 54.5796 27.0577 53.7752 27.3105V28.7443C53.7752 29.5798 53.1281 30.2572 52.3301 30.2572C51.5321 30.2572 50.8851 29.5798 50.8851 28.7443V27.3108C50.0757 27.0573 49.3516 26.5963 48.7696 25.9869C47.8582 25.0328 47.2944 23.7146 47.2944 22.2589H47.2943ZM62.7812 7.55765C60.1066 4.75755 56.4115 3.02568 52.33 3.02568C48.2485 3.02568 44.5534 4.75755 41.8788 7.55765C39.2044 10.3578 37.55 14.2263 37.55 18.4994C37.55 22.7725 39.2043 26.641 41.8788 29.4411C44.5534 32.2412 48.2485 33.973 52.33 33.973C56.4115 33.973 60.1066 32.2412 62.7812 29.4411C65.4556 26.641 67.11 22.7725 67.11 18.4994C67.11 14.2263 65.4557 10.3578 62.7812 7.55765ZM52.33 0C47.4508 0 43.0332 2.07072 39.8355 5.41846C36.6379 8.7662 34.66 13.3911 34.66 18.4994C34.66 23.6076 36.6377 28.2325 39.8355 31.5803C43.0332 34.928 47.4508 36.9987 52.33 36.9987C57.2092 36.9987 61.6268 34.928 64.8245 31.5803C68.0221 28.2325 70 23.6076 70 18.4994C70 13.3911 68.0221 8.7662 64.8245 5.41846C61.6268 2.07072 57.2092 0 52.33 0ZM65.5438 61.1076H37.2991C36.9987 61.1076 36.7244 61.2373 36.5248 61.4464C36.3662 61.6125 36.2552 61.828 36.2164 62.0673C36.2192 62.1302 36.2205 62.1936 36.2205 62.2572V65.825C36.2205 65.8885 36.2192 65.9517 36.2164 66.0145C36.2552 66.2539 36.366 66.4694 36.5248 66.6356C36.7245 66.8446 36.9987 66.9745 37.2991 66.9745H65.5438C65.8442 66.9745 66.1185 66.8447 66.3181 66.6356C66.5178 66.4265 66.6417 66.1395 66.6417 65.825V62.2572C66.6417 61.9427 66.5178 61.6555 66.3181 61.4466C66.1183 61.2376 65.8442 61.1077 65.5438 61.1077V61.1076ZM33.3154 66.0144C33.3126 65.9515 33.3112 65.8883 33.3112 65.8248V62.2571C33.3112 62.1936 33.3126 62.1304 33.3154 62.0675C33.2766 61.8282 33.1658 61.6125 33.007 61.4464C32.8073 61.2373 32.5331 61.1076 32.2327 61.1076H3.98801C3.68758 61.1076 3.41328 61.2373 3.2137 61.4464C3.01412 61.6555 2.89004 61.9425 2.89004 62.2571V65.8248C2.89004 66.1393 3.01397 66.4264 3.2137 66.6355C3.41343 66.8444 3.68758 66.9743 3.98801 66.9743H32.2327C32.5331 66.9743 32.8074 66.8446 33.007 66.6355C33.1658 66.4692 33.2766 66.2537 33.3154 66.0144ZM33.314 57.0778C33.3122 57.0295 33.3111 56.9812 33.3111 56.9324V53.3647C33.3111 53.316 33.3122 53.2675 33.314 53.2192C33.2689 53.0196 33.1344 52.8269 32.9408 52.6663C32.6052 52.3879 32.1199 52.2151 31.5659 52.2151H4.65459C4.10064 52.2151 3.61515 52.3879 3.27972 52.6663C3.03934 52.8657 2.89004 53.1146 2.89004 53.3647V56.9324C2.89004 57.1824 3.03934 57.4314 3.27972 57.6307C3.6153 57.9091 4.10064 58.0819 4.65459 58.0819H31.5659C32.1199 58.0819 32.6054 57.9091 32.9408 57.6307C33.1344 57.4701 33.2691 57.2773 33.314 57.0778ZM64.8772 58.0819C65.4311 58.0819 65.9166 57.9091 66.2521 57.6307C66.4924 57.4314 66.6417 57.1824 66.6417 56.9324V53.3647C66.6417 53.1146 66.4924 52.8657 66.2521 52.6663C65.9165 52.3879 65.4311 52.2151 64.8772 52.2151H37.9658C37.4119 52.2151 36.9264 52.3879 36.591 52.6663C36.3973 52.8269 36.2629 53.0197 36.2178 53.2192C36.2196 53.2675 36.2207 53.316 36.2207 53.3647V56.9324C36.2207 56.9812 36.2198 57.0298 36.2179 57.0781C36.263 57.2776 36.3975 57.4703 36.591 57.6309C36.9265 57.9093 37.4119 58.082 37.9658 58.082L64.8772 58.0819ZM33.6661 49.6419C33.4372 49.1496 33.3111 48.6093 33.3111 48.0399V44.4722C33.3111 43.2581 33.884 42.1758 34.8071 41.4101C35.6349 40.7234 36.7545 40.297 37.9657 40.297H64.877C66.0882 40.297 67.2078 40.7232 68.0356 41.4101C68.9586 42.1756 69.5316 43.2581 69.5316 44.4722V48.0399C69.5316 49.0557 69.1305 49.9793 68.459 50.7023C69.1305 51.4253 69.5316 52.3487 69.5316 53.3647V56.9324C69.5316 57.907 69.1623 58.7969 68.5391 59.5059C69.1562 60.2412 69.5316 61.205 69.5316 62.2571V65.8248C69.5316 66.9745 69.0833 68.0187 68.3612 68.7747C67.6392 69.5306 66.6417 70 65.5436 70H37.299C36.3385 70 35.4552 69.641 34.7657 69.0452C34.0762 69.641 33.193 70 32.2324 70H3.98801C2.88989 70 1.89246 69.5306 1.17041 68.7747C0.448359 68.0187 0 66.9745 0 65.8248V62.2571C0 61.205 0.375466 60.2414 0.992534 59.5059C0.369354 58.7969 0 57.907 0 56.9324V53.3647C0 52.1505 0.572904 51.0682 1.49606 50.3025C2.32386 49.6158 3.44338 49.1895 4.65459 49.1895H31.5659C32.3172 49.1895 33.0331 49.3534 33.6661 49.6419ZM64.8772 49.1895C65.4311 49.1895 65.9166 49.0167 66.2521 48.7383C66.4924 48.5389 66.6417 48.29 66.6417 48.0399V44.4722C66.6417 44.2222 66.4924 43.9732 66.2521 43.7739C65.9165 43.4955 65.4311 43.3227 64.8772 43.3227H37.9658C37.4119 43.3227 36.9264 43.4955 36.591 43.7739C36.3506 43.9732 36.2013 44.2222 36.2013 44.4722V48.0399C36.2013 48.29 36.3506 48.5389 36.591 48.7383C36.9265 49.0165 37.4119 49.1895 37.9658 49.1895H64.8772ZM25.9095 20.9349L4.89864 38.2313C4.2721 38.7469 3.36484 38.6332 2.87231 37.9772C2.37979 37.3213 2.48844 36.3714 3.11498 35.8558L24.0716 18.604L19.8783 18.0368C19.0897 17.9324 18.5311 17.1783 18.6309 16.3526C18.7307 15.527 19.4509 14.9422 20.2396 15.0467L27.9548 16.0901C28.7434 16.1946 29.302 16.9486 29.2022 17.7743L28.2057 25.8516C28.1059 26.6773 27.3857 27.262 26.597 27.1576C25.8083 27.0531 25.2498 26.2991 25.3496 25.4734L25.9095 20.9349Z" fill="#EA7C69"/>
</svg>
